# xmcd
#
# Track frame offsets:
#	150
#	13995
#	31070
#	43988
#	59088
#	71820
#	88765
#	102357
#	116232
#	131240
#	143868
#	156212
#
# Disc length: 2303 seconds
#
# Revision: 1
# Processed by: cddbd v1.5.2PL0 Copyright (c) Steve Scherf et al.
# Submitted via: audiograbber 1.83.01
#
DISCID=ba08fd0c
DTITLE=Die Zillertaler Türkenjäger - 12 Doitsche Stimmungshits
DYEAR=1997
DGENRE=Schlager
TTITLE0=Sonderzug nach Mekka
TTITLE1=Das Reich, das Reich
TTITLE2=10 kleine Negerlein
TTITLE3=Kreuzberger Nächte
TTITLE4=An der Nordseeküste
TTITLE5=1001 Nacht
TTITLE6=Er ist ein Mohr (Käpt'n Mola)
TTITLE7=So ist er
TTITLE8=Da, Da, Da
TTITLE9=Da sprach der Negerhäuptling aus Uganda
TTITLE10=Guten Morgen, liebe Mohren
TTITLE11=Eiermann
EXTD=
EXTT0=
EXTT1=
EXTT2=
EXTT3=
EXTT4=
EXTT5=
EXTT6=
EXTT7=
EXTT8=
EXTT9=
EXTT10=
EXTT11=
PLAYORDER=
